HIERARCHY
ROOT Hips
{
	OFFSET 0.000000 0.000000 0.000000
	CHANNELS 6 Xposition Yposition Zposition Zrotation Yrotation Xrotation 
	JOINT LHipJoint
	{
		OFFSET 0.000000 0.000000 0.000000
		CHANNELS 3 Zrotation Yrotation Xrotation
		JOINT LeftUpLeg
		{
			OFFSET 1.363060 -1.794630 0.839290
			CHANNELS 3 Zrotation Yrotation Xrotation
			JOINT LeftLeg
			{
				OFFSET 2.448110 -6.726130 0.000000
				CHANNELS 3 Zrotation Yrotation Xrotation
				JOINT LeftFoot
				{
					OFFSET 2.562200 -7.039590 0.000000
					CHANNELS 3 Zrotation Yrotation Xrotation
					JOINT LeftToeBase
					{
						OFFSET 0.157640 -0.433110 2.322550
						CHANNELS 3 Zrotation Yrotation Xrotation
						End Site
						{
							OFFSET 0.000000 0.000000 0.000000
						}
					}
				}
			}
		}
	}
	JOINT RHipJoint
	{
		OFFSET 0.000000 0.000000 0.000000
		CHANNELS 3 Zrotation Yrotation Xrotation
		JOINT RightUpLeg
		{
			OFFSET -1.305520 -1.794630 0.839290
			CHANNELS 3 Zrotation Yrotation Xrotation
			JOINT RightLeg
			{
				OFFSET -2.542530 -6.985550 0.000000
				CHANNELS 3 Zrotation Yrotation Xrotation
				JOINT RightFoot
				{
					OFFSET -2.568260 -7.056230 0.000000
					CHANNELS 3 Zrotation Yrotation Xrotation
					JOINT RightToeBase
					{
						OFFSET -0.164730 -0.452590 2.363150
						CHANNELS 3 Zrotation Yrotation Xrotation
						End Site
						{
							OFFSET 0.000000 0.000000 0.000000
						}
					}
				}
			}
		}
	}
}
MOTION
Frames: 17
Frame Time: 0.008333
4.990382 17.403930 1.073398 10.439385 -87.105219 11.667530 -10.705481 -0.089457 -0.997313 -8.543410 6.070186 -22.069250 -2.336942 -1.239622 -5.474077 0.789158 7.555322 6.901664 2.328200 0.000000 -38.335800 9.502761 0.651780 -1.749746 4.286248 -6.755761 -19.538338 2.303343 1.359294 -3.696384 -1.322804 -9.447133 7.598750 -3.478800 -0.000001 -61.646299
4.984769 17.405771 1.062493 9.523009 -86.443262 12.243805 -10.740999 -0.080744 -0.902064 -8.345680 5.704975 -21.682591 -2.302752 -1.229286 -5.522081 0.788268 7.470869 7.031955 2.302699 0.000000 -38.451100 9.485417 0.594532 -1.826423 4.341322 -7.082010 -19.032968 2.278204 1.345493 -3.652621 -1.388352 -9.779429 7.427100 -3.546799 -0.000000 -61.533900
4.978347 17.407443 1.051096 8.798340 -85.784079 12.607638 -10.770060 -0.068439 -0.803861 -8.144411 5.335755 -21.277637 -2.268118 -1.218542 -5.559494 0.787813 7.401377 7.150525 2.281100 -0.000000 -38.572000 9.473630 0.534704 -1.896855 4.390908 -7.393416 -18.514142 2.249695 1.328981 -3.590072 -1.457061 -10.123457 7.244203 -3.614500 -0.000000 -61.420500
4.970932 17.408982 1.039267 8.209205 -85.126409 12.819235 -10.794427 -0.051503 -0.702010 -7.945299 4.970648 -20.857015 -2.234719 -1.208130 -5.597147 0.787326 7.332686 7.265139 2.259000 -0.000000 -38.694800 9.466331 0.472254 -1.960419 4.435874 -7.695304 -17.989238 2.218754 1.310118 -3.505563 -1.528270 -10.475938 7.050497 -3.680900 0.000000 -61.307400
4.962585 17.410349 1.027041 7.727648 -84.470311 12.907038 -10.814171 -0.030167 -0.596172 -7.748444 4.603365 -20.422859 -2.201968 -1.197582 -5.629249 0.786902 7.270364 7.372256 2.238400 -0.000001 -38.818500 9.462981 0.408046 -2.018114 4.474252 -7.988069 -17.459659 2.185193 1.288660 -3.396232 -1.602170 -10.837222 6.844804 -3.745700 -0.000001 -61.193800
4.953237 17.411542 1.014485 7.330755 -83.814281 12.897190 -10.829854 -0.004071 -0.485692 -7.557007 4.236087 -19.978350 -2.170751 -1.187359 -5.661173 0.786301 7.207246 7.475933 2.217200 -0.000000 -38.941200 9.463155 0.342381 -2.069540 4.506085 -8.274283 -16.931380 2.149405 1.264822 -3.260123 -1.678634 -11.206439 6.627076 -3.808500 -0.000000 -61.079501
4.942886 17.412473 1.001545 7.013561 -83.159099 12.797669 -10.840763 0.026204 -0.370464 -7.370619 3.858308 -19.526291 -2.140099 -1.176869 -5.682953 0.785435 7.153931 7.568909 2.198900 -0.000000 -39.064300 9.466731 0.276384 -2.115765 4.528246 -8.551190 -16.404135 2.110718 1.238386 -3.095416 -1.758350 -11.585988 6.394547 -3.869000 0.000000 -60.962100
4.931521 17.413229 0.988367 6.756379 -82.501195 12.629877 -10.847373 0.061012 -0.250274 -7.193787 3.478327 -19.078488 -2.111734 -1.165936 -5.687987 0.782985 7.094559 7.650312 2.178699 -0.000000 -39.183200 9.473560 0.210057 -2.156575 4.542971 -8.826807 -15.884534 2.070208 1.209920 -2.903446 -1.840450 -11.972564 6.151307 -3.927000 0.000000 -60.843400
4.919263 17.413680 0.974876 6.561452 -81.842955 12.392731 -10.846039 0.097644 -0.127226 -7.026877 3.081531 -18.694219 -2.084374 -1.147413 -5.544558 0.772006 7.040890 7.642485 2.161000 0.000000 -39.301500 9.483628 0.145071 -2.193124 4.546286 -9.097050 -15.370524 2.027037 1.179446 -2.683588 -1.925577 -12.368845 5.894400 -3.982200 -0.000000 -60.720100
4.905899 17.413931 0.961215 6.413223 -81.178575 12.108121 -10.840831 0.138397 0.001134 -6.871357 2.678102 -18.313253 -2.059238 -1.129407 -5.397102 0.760234 6.980844 7.631668 2.141400 -0.000000 -39.415699 9.496893 0.080712 -2.225557 4.541356 -9.369787 -14.867080 1.982261 1.147571 -2.441431 -2.013012 -12.772343 5.629733 -4.034900 0.000000 -60.594800
4.891721 17.413874 0.947331 6.314424 -80.508967 11.773329 -10.831252 0.182189 0.134048 -6.726605 2.257759 -17.928425 -2.035206 -1.112182 -5.255557 0.749089 6.926781 7.622448 2.124000 0.000001 -39.530300 9.513296 0.018624 -2.255812 4.524529 -9.641244 -14.371706 1.935042 1.114113 -2.178433 -2.103474 -13.185800 5.355082 -4.085100 0.000000 -60.463700
4.876583 17.413588 0.933317 6.251771 -79.830506 11.406163 -10.817646 0.228909 0.271604 -6.593920 1.824757 -17.549439 -2.013189 -1.095482 -5.112357 0.737522 6.869307 7.612591 2.105900 -0.000000 -39.642499 9.532773 -0.041693 -2.283963 4.498543 -9.917352 -13.885658 1.886284 1.080031 -1.902621 -2.196143 -13.607431 5.077070 -4.133501 -0.000000 -60.329101
4.860626 17.413128 0.919227 6.218235 -79.141400 11.015021 -10.800062 0.277840 0.413346 -6.472890 1.376610 -17.177383 -1.993024 -1.079225 -4.968179 0.725644 6.809324 7.603542 2.087500 0.000000 -39.753100 9.555173 -0.099919 -2.311151 4.464093 -10.199976 -13.407508 1.836210 1.045827 -1.620688 -2.290784 -14.037371 4.799303 -4.181000 -0.000001 -60.191100
4.843965 17.412398 0.905072 6.214606 -78.441424 10.602537 -10.778391 0.327941 0.558376 -6.363334 0.908256 -16.810636 -1.974283 -1.063568 -4.828089 0.714125 6.752692 7.597904 2.070699 0.000000 -39.865700 9.580299 -0.155159 -2.338532 4.419550 -10.486638 -12.935331 1.784515 1.011854 -1.337981 -2.387685 -14.477182 4.521808 -4.227900 -0.000000 -60.046100
4.826604 17.411572 0.890986 6.224458 -77.726772 10.186963 -10.753160 0.378830 0.706792 -6.264244 0.423413 -16.456819 -1.957444 -1.048231 -4.685680 0.702064 6.691440 7.594419 2.053300 0.000000 -39.976000 9.607936 -0.208462 -2.366399 4.369284 -10.784080 -12.468151 1.732356 0.979132 -1.065681 -2.485663 -14.924325 4.253586 -4.275600 -0.000000 -59.898800
4.808685 17.410621 0.876970 6.248613 -76.997334 9.770219 -10.724393 0.429385 0.857618 -6.175338 -0.081493 -16.114910 -1.942177 -1.033385 -4.545791 0.689975 6.630433 7.596022 2.036900 0.000000 -40.086900 9.637752 -0.259203 -2.395539 4.312655 -11.089470 -12.004938 1.679556 0.948003 -0.809210 -2.584934 -15.380103 3.994910 -4.325000 -0.000000 -59.745899
4.790268 17.409607 0.863105 6.280569 -76.251749 9.361686 -10.692456 0.478794 1.010399 -6.095741 -0.605531 -15.788889 -1.928618 -1.019049 -4.408027 0.677578 6.567451 7.603558 2.020900 0.000000 -40.197600 9.669365 -0.307697 -2.426157 4.251787 -11.403751 -11.545403 1.626630 0.919125 -0.576115 -2.685052 -15.843736 3.749292 -4.376800 0.000000 -59.586800
